<svg width="316" height="500" viewBox="0 0 316 500" fill="none" xmlns="http://www.w3.org/2000/svg">
<mask id="mask0" mask-type="alpha" maskUnits="userSpaceOnUse" x="0" y="0" width="500" height="500">
<circle cx="250" cy="250" r="250" fill="#C4C4C4"/>
</mask>
<g mask="url(#mask0)">
<line x1="-8" y1="106.5" x2="609.003" y2="106.5" stroke="#C1F8FF" stroke-width="7"/>
<line x1="-8" y1="204.5" x2="609.003" y2="204.5" stroke="#C1F8FF" stroke-width="7"/>
<line x1="-8" y1="302.5" x2="609.003" y2="302.5" stroke="#C1F8FF" stroke-width="7"/>
<line x1="-8" y1="6.5" x2="609.003" y2="6.5" stroke="#C1F8FF" stroke-width="7"/>
<line x1="-8" y1="124.5" x2="609.003" y2="124.5" stroke="#C1F8FF" stroke-width="7"/>
<line x1="-8" y1="222.5" x2="609.003" y2="222.5" stroke="#C1F8FF" stroke-width="7"/>
<line x1="-8" y1="320.5" x2="609.003" y2="320.5" stroke="#C1F8FF" stroke-width="7"/>
<line x1="-8" y1="26.5" x2="609.003" y2="26.5" stroke="#C1F8FF" stroke-width="7"/>
<line x1="-8" y1="144.5" x2="609.003" y2="144.5" stroke="#C1F8FF" stroke-width="7"/>
<line x1="-8" y1="242.5" x2="609.003" y2="242.5" stroke="#C1F8FF" stroke-width="7"/>
<line x1="-8" y1="340.5" x2="609.003" y2="340.5" stroke="#C1F8FF" stroke-width="7"/>
<line x1="-8" y1="46.5" x2="609.003" y2="46.5" stroke="#C1F8FF" stroke-width="7"/>
<line x1="-8" y1="164.5" x2="609.003" y2="164.5" stroke="#C1F8FF" stroke-width="7"/>
<line x1="-8" y1="262.5" x2="609.003" y2="262.5" stroke="#C1F8FF" stroke-width="7"/>
<line x1="-8" y1="360.5" x2="609.003" y2="360.5" stroke="#C1F8FF" stroke-width="7"/>
<line x1="-8" y1="420.5" x2="609.003" y2="420.5" stroke="#C1F8FF" stroke-width="7"/>
<line x1="-8" y1="66.5" x2="609.003" y2="66.5" stroke="#C1F8FF" stroke-width="7"/>
<line x1="-8" y1="184.5" x2="609.003" y2="184.5" stroke="#C1F8FF" stroke-width="7"/>
<line x1="-8" y1="282.5" x2="609.003" y2="282.5" stroke="#C1F8FF" stroke-width="7"/>
<line x1="-8" y1="380.5" x2="609.003" y2="380.5" stroke="#C1F8FF" stroke-width="7"/>
<line x1="-8" y1="440.5" x2="609.003" y2="440.5" stroke="#C1F8FF" stroke-width="7"/>
<line x1="-8" y1="86.5" x2="609.003" y2="86.5" stroke="#C1F8FF" stroke-width="7"/>
<line x1="-8" y1="204.5" x2="609.003" y2="204.5" stroke="#C1F8FF" stroke-width="7"/>
<line x1="-8" y1="302.5" x2="609.003" y2="302.5" stroke="#C1F8FF" stroke-width="7"/>
<line x1="-8" y1="400.5" x2="609.003" y2="400.5" stroke="#C1F8FF" stroke-width="7"/>
<line x1="-8" y1="460.5" x2="609.003" y2="460.5" stroke="#C1F8FF" stroke-width="7"/>
<line x1="-8" y1="478.5" x2="609.003" y2="478.5" stroke="#C1F8FF" stroke-width="7"/>
</g>
</svg>
