<svg width="58" height="58" viewBox="0 0 58 58" fill="none" xmlns="http://www.w3.org/2000/svg">
<g filter="url(#filter0_dd)">
<path d="M54 25C54 38.8071 42.8071 50 29 50C15.1929 50 4 38.8071 4 25C4 11.1929 15.1929 0 29 0C42.8071 0 54 11.1929 54 25Z" fill="white"/>
</g>
<g clip-path="url(#clip0)">
<path d="M28.6154 14.2027C22.6578 14.2027 17.811 19.0495 17.811 25.0071C17.811 30.9646 22.6578 35.8114 28.6154 35.8114C34.5729 35.8114 39.4197 30.9646 39.4197 25.0071C39.4197 19.0495 34.5729 14.2027 28.6154 14.2027ZM28.6154 33.3324C24.0247 33.3324 20.29 29.5977 20.29 25.0071C20.29 20.4164 24.0247 16.6817 28.6154 16.6817C33.206 16.6817 36.9407 20.4164 36.9407 25.0071C36.9407 29.5977 33.206 33.3324 28.6154 33.3324Z" fill="black"/>
<path d="M29.8549 3.85321H27.376V11.3727H29.8549V3.85321Z" fill="black"/>
<path d="M29.8549 38.6414H27.376V46.1609H29.8549V38.6414Z" fill="black"/>
<path d="M49.769 23.7676H42.2495V26.2465H49.769V23.7676Z" fill="black"/>
<path d="M14.981 23.7676H7.46143V26.2465H14.981V23.7676Z" fill="black"/>
<path d="M39.1328 33.7712L37.3799 35.5241L42.6969 40.8411L44.4498 39.0882L39.1328 33.7712Z" fill="black"/>
<path d="M14.5327 9.17303L12.7798 10.9259L18.0968 16.2429L19.8497 14.49L14.5327 9.17303Z" fill="black"/>
<path d="M18.0973 33.7714L12.7803 39.0884L14.5331 40.8413L19.8501 35.5243L18.0973 33.7714Z" fill="black"/>
<path d="M42.6969 9.17293L37.3799 14.4899L39.1328 16.2428L44.4498 10.9258L42.6969 9.17293Z" fill="black"/>
</g>
<defs>
<filter id="filter0_dd" x="0" y="0" width="58" height="58" filterUnits="userSpaceOnUse" color-interpolation-filters="sRGB">
<feFlood flood-opacity="0" result="BackgroundImageFix"/>
<feColorMatrix in="SourceAlpha" type="matrix" values="0 0 0 0 0 0 0 0 0 0 0 0 0 0 0 0 0 0 127 0"/>
<feOffset dy="4"/>
<feColorMatrix type="matrix" values="0 0 0 0 0 0 0 0 0 0 0 0 0 0 0 0 0 0 0.25 0"/>
<feBlend mode="normal" in2="BackgroundImageFix" result="effect1_dropShadow"/>
<feColorMatrix in="SourceAlpha" type="matrix" values="0 0 0 0 0 0 0 0 0 0 0 0 0 0 0 0 0 0 127 0"/>
<feOffset dy="4"/>
<feGaussianBlur stdDeviation="2"/>
<feColorMatrix type="matrix" values="0 0 0 0 0 0 0 0 0 0 0 0 0 0 0 0 0 0 0.25 0"/>
<feBlend mode="normal" in2="effect1_dropShadow" result="effect2_dropShadow"/>
<feBlend mode="normal" in="SourceGraphic" in2="effect2_dropShadow" result="shape"/>
</filter>
<clipPath id="clip0">
<rect width="42.3077" height="42.3077" fill="white" transform="translate(7.46143 3.85321)"/>
</clipPath>
</defs>
</svg>
